<svg id="Layer_1" height="32" viewBox="0 0 512 512" width="32" xmlns="http://www.w3.org/2000/svg" data-name="Layer 1"><path d="m379.821 386.996h62.603v27.38h-62.603z" transform="matrix(.707 -.707 .707 .707 -162.913 408.066)"/><path d="m115.285 116.365 240.204 248.171 19.484-19.484-248.164-240.196z"/><path d="m376.945 386.704 7.208 7.448 20.435-20.435-7.448-7.209z"/><path d="m130.464 87.073c-.051-5.613-1.323-23.063-14.727-30.474-4.342-2.4-10.665-3.879-16.779-5.31-7.456-1.746-15.166-3.55-21.048-7.252-2.8-1.761-5.973-3.893-9.335-6.152-7.3-4.905-20.846-14-24.624-14.084-3.376.828-6.514 3.983-8.487 6.491l61.341 90.4z"/><path d="m349.656 384.511a4.667 4.667 0 0 0 0 6.6l1.07 1.07a4.673 4.673 0 0 0 6.6 0l5.591-5.591-7.545-7.795z"/><path d="m430.771 305.008c-10.574-1.554-21.507-3.161-31.3-12.948-7.38-7.38-12.022-18.092-16.936-29.434-6-13.848-12.8-29.543-25.951-42.691a44.685 44.685 0 0 0 -20.36-11.692c-6.161-1.5-11.487-.924-13.9 1.488-1.488 1.487-2.765 5.278-1.468 11.069 1.287 5.742 5.517 15.351 18.364 28.522 7.062 7.24 8.964 16.433 5.089 24.593a25.138 25.138 0 0 1 -15.237 12.8l52.967 51.267 5.831-5.832a14.669 14.669 0 0 1 20.742 0l1.07 1.069a14.684 14.684 0 0 1 0 20.743l-5.475 5.476 7.448 7.209 8.379-8.38a5 5 0 0 1 7.071 0l26.438 26.433a5 5 0 0 1 0 7.071l-51.338 51.338a5 5 0 0 1 -7.072 0l-26.433-26.434a5 5 0 0 1 0-7.071l8.379-8.38-7.209-7.448-5.476 5.476a14.683 14.683 0 0 1 -20.742 0l-1.07-1.07a14.668 14.668 0 0 1 0-20.742l5.832-5.832-84.544-87.351a25.273 25.273 0 0 1 -13.07 16.074c-8.16 3.875-17.353 1.972-24.593-5.089-13.171-12.847-22.781-17.077-28.523-18.364-5.79-1.3-9.582-.02-11.069 1.467-5.3 5.3-1.561 22.5 10.2 34.26 13.349 13.35 34.455 25.43 53.077 36.088 15.37 8.8 28.644 16.394 35.823 23.573 9.335 9.335 14.162 22.618 19.273 36.681 6.554 18.036 13.984 38.48 32.536 55.739 38.976 36.251 79.701 30.558 128.176-17.916 43.849-43.85 46.667-79.641 9.422-119.675-16.778-18.034-30.795-20.095-44.351-22.087z"/><path d="m362.444 371.723 7.545 7.794 19.965-19.965-7.795-7.544z"/><path d="m401.548 339.22a4.67 4.67 0 0 0 -6.6 0l-5.717 5.717 7.8 7.544 5.591-5.591a4.672 4.672 0 0 0 0-6.6z"/><path d="m85.666 114.876-10.952 10.951-1.8-1.8a5 5 0 1 0 -7.071 7.071l11.436 11.437a5 5 0 0 0 7.072-7.072l-2.565-2.563 10.951-10.95z"/><path d="m68.129 88.191-11.713 11.709-1.8-1.8a5 5 0 1 0 -7.071 7.071l11.434 11.439a5 5 0 0 0 7.072-7.071l-2.564-2.564 11.713-11.713z"/><path d="m44.979 91.389a5 5 0 0 0 3.536-8.535l-2.564-2.564 10.949-10.951-7.07-7.071-10.951 10.95-1.8-1.8a5 5 0 0 0 -7.072 7.071l11.436 11.436a4.987 4.987 0 0 0 3.536 1.464z"/><path d="m30.978 56.168-2.564-2.568 10.951-10.947-7.071-7.071-10.951 10.951-1.8-1.8a5 5 0 0 0 -7.073 7.067l11.437 11.439a5 5 0 1 0 7.071-7.071z"/></svg>